<svg width="20" height="20" viewBox="0 0 20 20" fill="none" xmlns="http://www.w3.org/2000/svg">
<path d="M16 8.60007C16 12.0952 11.8457 15.7353 10.4507 16.8595C10.3208 16.9507 10.1626 17 10 17C9.8374 17 9.67921 16.9507 9.54925 16.8595C8.15425 15.7353 4 12.0952 4 8.60007C4 7.11484 4.63214 5.69044 5.75736 4.64022C6.88258 3.59001 8.4087 3 10 3C11.5913 3 13.1174 3.59001 14.2426 4.64022C15.3679 5.69044 16 7.11484 16 8.60007Z" stroke="currentColor"  stroke-linecap="round" stroke-linejoin="round"/>
<path d="M10 11C11.1046 11 12 10.1046 12 9C12 7.89543 11.1046 7 10 7C8.89543 7 8 7.89543 8 9C8 10.1046 8.89543 11 10 11Z" stroke="currentColor" stroke-linecap="round" stroke-linejoin="round"/>
</svg>
